<mxfile host="app.diagrams.net" agent="Mozilla/5.0 (Macintosh; Intel Mac OS X 10_15_7) AppleWebKit/537.36 (KHTML, like Gecko) Chrome/127.0.0.0 Safari/537.36" version="24.7.7">
  <diagram name="第 1 页" id="cfGqA1K73Aj2xrChd5-J">
    <mxGraphModel dx="2947" dy="1347" grid="1" gridSize="10" guides="1" tooltips="1" connect="1" arrows="1" fold="1" page="1" pageScale="1" pageWidth="827" pageHeight="1169" math="0" shadow="0">
      <root>
        <mxCell id="0" />
        <mxCell id="1" parent="0" />
        <mxCell id="jW8SP01IK_JrXBrxsOXc-32" style="edgeStyle=orthogonalEdgeStyle;rounded=0;orthogonalLoop=1;jettySize=auto;html=1;entryX=0;entryY=0.5;entryDx=0;entryDy=0;" edge="1" parent="1" source="jW8SP01IK_JrXBrxsOXc-28" target="jW8SP01IK_JrXBrxsOXc-29">
          <mxGeometry relative="1" as="geometry" />
        </mxCell>
        <mxCell id="jW8SP01IK_JrXBrxsOXc-28" value="" style="rounded=0;whiteSpace=wrap;html=1;" vertex="1" parent="1">
          <mxGeometry x="60" y="280" width="880" height="340" as="geometry" />
        </mxCell>
        <mxCell id="jW8SP01IK_JrXBrxsOXc-19" style="edgeStyle=orthogonalEdgeStyle;rounded=0;orthogonalLoop=1;jettySize=auto;html=1;entryX=0;entryY=0.5;entryDx=0;entryDy=0;" edge="1" parent="1" source="jW8SP01IK_JrXBrxsOXc-9" target="jW8SP01IK_JrXBrxsOXc-11">
          <mxGeometry relative="1" as="geometry" />
        </mxCell>
        <mxCell id="jW8SP01IK_JrXBrxsOXc-9" value="" style="rounded=0;whiteSpace=wrap;html=1;dashed=1;dashPattern=12 12;" vertex="1" parent="1">
          <mxGeometry x="290" y="300" width="170" height="150" as="geometry" />
        </mxCell>
        <mxCell id="jW8SP01IK_JrXBrxsOXc-1" value="MotionMeasurements" style="rounded=0;whiteSpace=wrap;html=1;" vertex="1" parent="1">
          <mxGeometry x="80" y="420" width="150" height="60" as="geometry" />
        </mxCell>
        <mxCell id="jW8SP01IK_JrXBrxsOXc-3" value="MotionMeasure-RawIA" style="rounded=0;whiteSpace=wrap;html=1;" vertex="1" parent="1">
          <mxGeometry x="300" y="380" width="150" height="60" as="geometry" />
        </mxCell>
        <mxCell id="jW8SP01IK_JrXBrxsOXc-4" value="MotionMeasure-DL" style="rounded=0;whiteSpace=wrap;html=1;" vertex="1" parent="1">
          <mxGeometry x="300" y="310" width="150" height="60" as="geometry" />
        </mxCell>
        <mxCell id="jW8SP01IK_JrXBrxsOXc-8" style="edgeStyle=orthogonalEdgeStyle;rounded=0;orthogonalLoop=1;jettySize=auto;html=1;" edge="1" parent="1" source="jW8SP01IK_JrXBrxsOXc-7" target="jW8SP01IK_JrXBrxsOXc-1">
          <mxGeometry relative="1" as="geometry" />
        </mxCell>
        <mxCell id="jW8SP01IK_JrXBrxsOXc-7" value="VA/DL/IA/RawIA" style="shape=cylinder3;whiteSpace=wrap;html=1;boundedLbl=1;backgroundOutline=1;size=15;" vertex="1" parent="1">
          <mxGeometry x="95" y="310" width="120" height="80" as="geometry" />
        </mxCell>
        <mxCell id="jW8SP01IK_JrXBrxsOXc-10" value="" style="shape=flexArrow;endArrow=classic;html=1;rounded=0;" edge="1" parent="1">
          <mxGeometry width="50" height="50" relative="1" as="geometry">
            <mxPoint x="240" y="450" as="sourcePoint" />
            <mxPoint x="280" y="450" as="targetPoint" />
          </mxGeometry>
        </mxCell>
        <mxCell id="jW8SP01IK_JrXBrxsOXc-26" style="edgeStyle=orthogonalEdgeStyle;rounded=0;orthogonalLoop=1;jettySize=auto;html=1;entryX=0;entryY=0.5;entryDx=0;entryDy=0;" edge="1" parent="1" source="jW8SP01IK_JrXBrxsOXc-11" target="jW8SP01IK_JrXBrxsOXc-25">
          <mxGeometry relative="1" as="geometry" />
        </mxCell>
        <mxCell id="jW8SP01IK_JrXBrxsOXc-11" value="MotionConsistencyCheck" style="rounded=0;whiteSpace=wrap;html=1;" vertex="1" parent="1">
          <mxGeometry x="540" y="420" width="170" height="60" as="geometry" />
        </mxCell>
        <mxCell id="jW8SP01IK_JrXBrxsOXc-24" style="edgeStyle=orthogonalEdgeStyle;rounded=0;orthogonalLoop=1;jettySize=auto;html=1;entryX=0;entryY=0.5;entryDx=0;entryDy=0;" edge="1" parent="1" source="jW8SP01IK_JrXBrxsOXc-16" target="jW8SP01IK_JrXBrxsOXc-11">
          <mxGeometry relative="1" as="geometry" />
        </mxCell>
        <mxCell id="jW8SP01IK_JrXBrxsOXc-16" value="" style="rounded=0;whiteSpace=wrap;html=1;dashed=1;dashPattern=12 12;" vertex="1" parent="1">
          <mxGeometry x="290" y="460" width="170" height="150" as="geometry" />
        </mxCell>
        <mxCell id="jW8SP01IK_JrXBrxsOXc-17" value="MotionMeasure-RawIA" style="rounded=0;whiteSpace=wrap;html=1;" vertex="1" parent="1">
          <mxGeometry x="300" y="540" width="150" height="60" as="geometry" />
        </mxCell>
        <mxCell id="jW8SP01IK_JrXBrxsOXc-18" value="MotionMeasure-VA" style="rounded=0;whiteSpace=wrap;html=1;" vertex="1" parent="1">
          <mxGeometry x="300" y="470" width="150" height="60" as="geometry" />
        </mxCell>
        <mxCell id="jW8SP01IK_JrXBrxsOXc-25" value="MotionCorrection" style="rounded=0;whiteSpace=wrap;html=1;" vertex="1" parent="1">
          <mxGeometry x="750" y="420" width="170" height="60" as="geometry" />
        </mxCell>
        <mxCell id="jW8SP01IK_JrXBrxsOXc-31" style="edgeStyle=orthogonalEdgeStyle;rounded=0;orthogonalLoop=1;jettySize=auto;html=1;" edge="1" parent="1" source="jW8SP01IK_JrXBrxsOXc-27" target="jW8SP01IK_JrXBrxsOXc-28">
          <mxGeometry relative="1" as="geometry" />
        </mxCell>
        <mxCell id="jW8SP01IK_JrXBrxsOXc-27" value="&lt;b style=&quot;font-size: 15px;&quot;&gt;Start&lt;/b&gt;" style="ellipse;whiteSpace=wrap;html=1;fontSize=15;" vertex="1" parent="1">
          <mxGeometry x="-70" y="420" width="110" height="60" as="geometry" />
        </mxCell>
        <mxCell id="jW8SP01IK_JrXBrxsOXc-29" value="&lt;b style=&quot;font-size: 15px;&quot;&gt;End&lt;/b&gt;" style="ellipse;whiteSpace=wrap;html=1;fontSize=15;" vertex="1" parent="1">
          <mxGeometry x="960" y="420" width="110" height="60" as="geometry" />
        </mxCell>
        <mxCell id="jW8SP01IK_JrXBrxsOXc-33" value="" style="ellipse;whiteSpace=wrap;html=1;" vertex="1" parent="1">
          <mxGeometry x="530" y="640" width="410" height="160" as="geometry" />
        </mxCell>
        <mxCell id="jW8SP01IK_JrXBrxsOXc-34" value="&lt;b&gt;&lt;font style=&quot;font-size: 20px;&quot;&gt;IA&lt;/font&gt;&lt;/b&gt;" style="ellipse;whiteSpace=wrap;html=1;" vertex="1" parent="1">
          <mxGeometry x="710" y="690" width="160" height="90" as="geometry" />
        </mxCell>
        <mxCell id="jW8SP01IK_JrXBrxsOXc-35" value="&lt;font style=&quot;font-size: 20px;&quot;&gt;&lt;b&gt;RawIA&lt;/b&gt;&lt;/font&gt;" style="text;html=1;align=center;verticalAlign=middle;whiteSpace=wrap;rounded=0;" vertex="1" parent="1">
          <mxGeometry x="600" y="705" width="60" height="30" as="geometry" />
        </mxCell>
        <mxCell id="jW8SP01IK_JrXBrxsOXc-36" value="MlfMotionFusion" style="text;html=1;align=center;verticalAlign=middle;whiteSpace=wrap;rounded=0;fontStyle=1;fontSize=24;" vertex="1" parent="1">
          <mxGeometry x="800" y="300" width="60" height="30" as="geometry" />
        </mxCell>
      </root>
    </mxGraphModel>
  </diagram>
</mxfile>
